<mxfile host="app.diagrams.net" agent="Mozilla/5.0 (Windows NT 10.0; Win64; x64) AppleWebKit/537.36 (KHTML, like Gecko) Chrome/134.0.0.0 Safari/537.36" version="26.1.0">
  <diagram name="Sida-1" id="aW-4YCRdCt6bOaJPUXM-">
    <mxGraphModel dx="2261" dy="738" grid="1" gridSize="10" guides="1" tooltips="1" connect="1" arrows="1" fold="1" page="1" pageScale="1" pageWidth="827" pageHeight="1169" math="0" shadow="0">
      <root>
        <mxCell id="0" />
        <mxCell id="1" parent="0" />
        <mxCell id="nhn-KtfMma2Df_OU7ZKA-9" style="edgeStyle=orthogonalEdgeStyle;rounded=0;orthogonalLoop=1;jettySize=auto;html=1;exitX=0.5;exitY=1;exitDx=0;exitDy=0;entryX=0.5;entryY=0;entryDx=0;entryDy=0;" edge="1" parent="1" source="nhn-KtfMma2Df_OU7ZKA-1" target="nhn-KtfMma2Df_OU7ZKA-8">
          <mxGeometry relative="1" as="geometry" />
        </mxCell>
        <mxCell id="nhn-KtfMma2Df_OU7ZKA-13" style="edgeStyle=orthogonalEdgeStyle;rounded=0;orthogonalLoop=1;jettySize=auto;html=1;exitX=0.5;exitY=1;exitDx=0;exitDy=0;entryX=0.5;entryY=0;entryDx=0;entryDy=0;" edge="1" parent="1" source="nhn-KtfMma2Df_OU7ZKA-1" target="nhn-KtfMma2Df_OU7ZKA-12">
          <mxGeometry relative="1" as="geometry" />
        </mxCell>
        <mxCell id="nhn-KtfMma2Df_OU7ZKA-1" value="Scene" style="rounded=1;whiteSpace=wrap;html=1;" vertex="1" parent="1">
          <mxGeometry x="354" y="180" width="166" height="50" as="geometry" />
        </mxCell>
        <mxCell id="nhn-KtfMma2Df_OU7ZKA-3" value=".UpdateENEMYTYPE()" style="shape=process;whiteSpace=wrap;html=1;backgroundOutline=1;size=0.06666666666666667;" vertex="1" parent="1">
          <mxGeometry x="-90" y="650" width="170" height="40" as="geometry" />
        </mxCell>
        <mxCell id="nhn-KtfMma2Df_OU7ZKA-14" style="edgeStyle=orthogonalEdgeStyle;rounded=0;orthogonalLoop=1;jettySize=auto;html=1;exitX=0.5;exitY=1;exitDx=0;exitDy=0;entryX=0.5;entryY=0;entryDx=0;entryDy=0;" edge="1" parent="1" source="nhn-KtfMma2Df_OU7ZKA-4" target="nhn-KtfMma2Df_OU7ZKA-15">
          <mxGeometry relative="1" as="geometry">
            <mxPoint x="120" y="513" as="targetPoint" />
          </mxGeometry>
        </mxCell>
        <mxCell id="nhn-KtfMma2Df_OU7ZKA-20" style="edgeStyle=orthogonalEdgeStyle;rounded=0;orthogonalLoop=1;jettySize=auto;html=1;exitX=0;exitY=0.5;exitDx=0;exitDy=0;entryX=1;entryY=0.5;entryDx=0;entryDy=0;" edge="1" parent="1" source="nhn-KtfMma2Df_OU7ZKA-4" target="nhn-KtfMma2Df_OU7ZKA-18">
          <mxGeometry relative="1" as="geometry">
            <mxPoint x="10" y="320" as="targetPoint" />
          </mxGeometry>
        </mxCell>
        <mxCell id="nhn-KtfMma2Df_OU7ZKA-23" style="edgeStyle=orthogonalEdgeStyle;rounded=0;orthogonalLoop=1;jettySize=auto;html=1;exitX=0;exitY=0.5;exitDx=0;exitDy=0;entryX=1;entryY=0.5;entryDx=0;entryDy=0;" edge="1" parent="1" source="nhn-KtfMma2Df_OU7ZKA-4" target="nhn-KtfMma2Df_OU7ZKA-22">
          <mxGeometry relative="1" as="geometry" />
        </mxCell>
        <mxCell id="nhn-KtfMma2Df_OU7ZKA-4" value="Chunk" style="rounded=1;whiteSpace=wrap;html=1;" vertex="1" parent="1">
          <mxGeometry x="130" y="373" width="140" height="40" as="geometry" />
        </mxCell>
        <mxCell id="nhn-KtfMma2Df_OU7ZKA-10" style="edgeStyle=orthogonalEdgeStyle;rounded=0;orthogonalLoop=1;jettySize=auto;html=1;exitX=0.5;exitY=1;exitDx=0;exitDy=0;" edge="1" parent="1" source="nhn-KtfMma2Df_OU7ZKA-8" target="nhn-KtfMma2Df_OU7ZKA-4">
          <mxGeometry relative="1" as="geometry" />
        </mxCell>
        <mxCell id="nhn-KtfMma2Df_OU7ZKA-8" value="ChunkHandler" style="rounded=1;whiteSpace=wrap;html=1;" vertex="1" parent="1">
          <mxGeometry x="220" y="280" width="130" height="40" as="geometry" />
        </mxCell>
        <mxCell id="nhn-KtfMma2Df_OU7ZKA-16" style="edgeStyle=orthogonalEdgeStyle;rounded=0;orthogonalLoop=1;jettySize=auto;html=1;exitX=0;exitY=0.5;exitDx=0;exitDy=0;entryX=1;entryY=0.5;entryDx=0;entryDy=0;curved=0;dashed=1;" edge="1" parent="1" source="nhn-KtfMma2Df_OU7ZKA-12" target="nhn-KtfMma2Df_OU7ZKA-15">
          <mxGeometry relative="1" as="geometry" />
        </mxCell>
        <mxCell id="nhn-KtfMma2Df_OU7ZKA-12" value="WorldObjects" style="rounded=1;whiteSpace=wrap;html=1;arcSize=15;" vertex="1" parent="1">
          <mxGeometry x="500" y="280" width="130" height="40" as="geometry" />
        </mxCell>
        <mxCell id="nhn-KtfMma2Df_OU7ZKA-21" style="edgeStyle=orthogonalEdgeStyle;rounded=0;orthogonalLoop=1;jettySize=auto;html=1;exitX=0;exitY=0.5;exitDx=0;exitDy=0;entryX=1;entryY=0.5;entryDx=0;entryDy=0;" edge="1" parent="1" source="nhn-KtfMma2Df_OU7ZKA-15" target="nhn-KtfMma2Df_OU7ZKA-3">
          <mxGeometry relative="1" as="geometry" />
        </mxCell>
        <mxCell id="nhn-KtfMma2Df_OU7ZKA-15" value="EnemyList" style="rounded=1;whiteSpace=wrap;html=1;" vertex="1" parent="1">
          <mxGeometry x="130" y="590" width="140" height="40" as="geometry" />
        </mxCell>
        <mxCell id="nhn-KtfMma2Df_OU7ZKA-18" value=".GetCollisions()" style="shape=process;whiteSpace=wrap;html=1;backgroundOutline=1;size=0.06666666666666667;" vertex="1" parent="1">
          <mxGeometry x="-90" y="420" width="170" height="40" as="geometry" />
        </mxCell>
        <mxCell id="nhn-KtfMma2Df_OU7ZKA-22" value=".HandleCollisions()" style="shape=process;whiteSpace=wrap;html=1;backgroundOutline=1;size=0.06666666666666667;" vertex="1" parent="1">
          <mxGeometry x="-90" y="480" width="170" height="40" as="geometry" />
        </mxCell>
      </root>
    </mxGraphModel>
  </diagram>
</mxfile>
